/* XPM */
static char *_05f44fc06ec48ebac483fcb8f4ccc181eURhtkS16WcjhXa[] = {
/* columns rows colors chars-per-pixel */
"32 32 4 1 ",
"  c #EEC39A",
". c #c1490e",
"1 c #bcb6b4",
"o c #FEFEFE",
/* pixels */
"                                ",
"                                ",
"                                ",
"                                ",
"                                ",
"                                ",
"                                ",
"                                ",
"     ......................     ",
"     ......................     ",
"     ......................     ",
"     ......................     ",
"     ......................     ",
"     ......................     ",
"     ......................     ",
"     ......................     ",
"     ......................     ",
"     ......................     ",
"     ......................     ",
"     ......................     ",
"     ..............ooooo...     ",
"     ..............o111o...     ",
"     ..............o111o...     ",
"     ..............o111o...     ",
"     ..............ooooo...     ",
"     ......................     ",
"     ......................     ",
"     ......................     ",
"     ......................     ",
"     ......................     ",
"     ......................     ",
"     ......................     "
};
