/* XPM */
static char *c0ec1d77b2754e77d3b978488b94135fWTCbXaofyhfxhNlU[] = {
/* columns rows colors chars-per-pixel */
"32 32 2 1 ",
"  c #EEC39A",
". c #DF7126",
/* pixels */
"                                ",
"                                ",
"                                ",
"                                ",
"              ....              ",
"            ........            ",
"            ........            ",
"           ..........           ",
"           ..........           ",
"           ..........           ",
"           ..........           ",
"            ........            ",
"            ........            ",
"              ....              ",
"               ..               ",
"               ..               ",
"          ............          ",
"          ............          ",
"               ..               ",
"               ..               ",
"               ..               ",
"               ..               ",
"               ..               ",
"              ....              ",
"             ......             ",
"             ..  ..             ",
"             ..  ..             ",
"            ...  ...            ",
"            ...  ...            ",
"                                ",
"                                ",
"                                "
};
